{
  "asset": {
    "version": "2.0",
    "generator": "THREE.GLTFExporter"
  },
  "scenes": [
    {
      "nodes": [
        0
      ]
    }
  ],
  "scene": 0,
  "nodes": [
    {
      "children": [
        6
      ],
      "matrix": [
        0.01,
        0,
        0,
        0,
        0,
        0.01,
        0,
        0,
        0,
        0,
        0.01,
        0,
        0,
        0,
        0,
        1
      ]
    },
    {
      "matrix": [
        0.6155401252897488,
        -2.308761323788211e-8,
        -0.7881055476002438,
        0,
        -0.35227839589780674,
        0.8945369820259265,
        -0.2751427258199197,
        0,
        0.7049895644206011,
        0.4469939460305328,
        0.5506233978592852,
        0,
        736.1240706102096,
        426.8480355244335,
        659.4880036117371,
        1
      ],
      "name": "Camera",
      "camera": 0
    },
    {
      "matrix": [
        -1,
        -1.2246467991473532e-16,
        0,
        0,
        5.920509872148725e-16,
        -4.834463190750847,
        0,
        0,
        0,
        0,
        1,
        0,
        22.795456762349204,
        64.08848930906984,
        -84.3684671469091,
        1
      ],
      "name": "Point Light",
      "extensions": {
        "KHR_lights_punctual": {
          "light": 0
        }
      }
    },
    {
      "matrix": [
        2.220446049250313e-16,
        -2.220446049250313e-16,
        1,
        0,
        1,
        0,
        -2.220446049250313e-16,
        0,
        0,
        1,
        2.220446049250313e-16,
        0,
        47.462392245696535,
        77.14440664122232,
        41.876365782963475,
        1
      ],
      "name": "Plane",
      "mesh": 0
    },
    {
      "matrix": [
        0.5907221988871119,
        2.7755575615628914e-17,
        -0.8068750112266307,
        0,
        -0.44110590767468616,
        0.8373388004160847,
        -0.3229385568993637,
        0,
        0.6756277539862219,
        0.5466843086441684,
        0.494634617395286,
        0,
        702.1070833810259,
        377.02970520106703,
        750.9480984735795,
        1
      ],
      "camera": 1
    },
    {
      "matrix": [
        1,
        0,
        0,
        0,
        0,
        1,
        0,
        0,
        0,
        0,
        1,
        0,
        0,
        1,
        0,
        1
      ],
      "name": "Default Ambient Light"
    },
    {
      "name": "Scene 1",
      "children": [
        1,
        2,
        3,
        4,
        5
      ]
    }
  ],
  "cameras": [
    {
      "type": "orthographic",
      "orthographic": {
        "xmag": 3.7453438396072682,
        "ymag": 1.6946705524264658,
        "zfar": 100000,
        "znear": 0
      },
      "name": "Camera"
    },
    {
      "type": "perspective",
      "perspective": {
        "aspectRatio": 2.210071942446043,
        "yfov": 0.7853981633974483,
        "zfar": 100000,
        "znear": 70
      }
    }
  ],
  "extensions": {
    "KHR_lights_punctual": {
      "lights": [
        {
          "name": "Point Light",
          "color": [
            0.7943365597030492,
            0.7943365597030492,
            0.7943365597030492
          ],
          "intensity": 10,
          "type": "point",
          "range": 120
        }
      ]
    }
  },
  "bufferViews": [
    {
      "buffer": 0,
      "byteOffset": 0,
      "byteLength": 302604,
      "target": 34962,
      "byteStride": 12
    },
    {
      "buffer": 0,
      "byteOffset": 302604,
      "byteLength": 302604,
      "target": 34962,
      "byteStride": 12
    },
    {
      "buffer": 0,
      "byteOffset": 605208,
      "byteLength": 201736,
      "target": 34962,
      "byteStride": 8
    },
    {
      "buffer": 0,
      "byteOffset": 806944,
      "byteLength": 298800,
      "target": 34963
    }
  ],
  "buffers": [
    {
      "byteLength": 1105744,
      "uri": "data:application/octet-stream;base64,"
    }
  ],
  "accessors": [
    {
      "bufferView": 0,
      "componentType": 5126,
      "count": 25217,
      "max": [
        1300.52001953125,
        1422.06005859375,
        0
      ],
      "min": [
        -1300.52001953125,
        -1422.06005859375,
        0
      ],
      "type": "VEC3"
    },
    {
      "bufferView": 1,
      "componentType": 5126,
      "count": 25217,
      "max": [
        0,
        0,
        1
      ],
      "min": [
        0,
        0,
        1
      ],
      "type": "VEC3"
    },
    {
      "bufferView": 2,
      "componentType": 5126,
      "count": 25217,
      "max": [
        1,
        1
      ],
      "min": [
        0,
        0
      ],
      "type": "VEC2"
    },
    {
      "bufferView": 3,
      "componentType": 5123,
      "count": 149400,
      "max": [
        25216
      ],
      "min": [
        0
      ],
      "type": "SCALAR"
    }
  ],
  "meshes": [
    {
      "primitives": [
        {
          "mode": 1,
          "attributes": {
            "POSITION": 0,
            "NORMAL": 1,
            "TEXCOORD_0": 2
          },
          "extras": {
            "parameters": {
              "width": 2601.04,
              "depth": 0,
              "widthSegments": 166,
              "heightSegments": 150,
              "height": 2844.12,
              "type": "PlaneGeometry"
            },
            "type": "PlaneGeometry"
          },
          "indices": 3
        }
      ]
    }
  ],
  "extensionsUsed": [
    "KHR_lights_punctual"
  ]
}